<svg width="1200" height="720" viewBox="0 0 1200 720" fill="none" xmlns="http://www.w3.org/2000/svg">
  <rect width="1200" height="720" rx="48" fill="#132238"/>
  <rect x="34" y="34" width="1132" height="652" rx="32" fill="url(#paint0_linear)"/>
  <rect x="92" y="92" width="1016" height="64" rx="20" fill="rgba(255,255,255,0.08)"/>
  <rect x="120" y="112" width="210" height="24" rx="12" fill="#F9F5ED" fill-opacity="0.88"/>
  <rect x="816" y="108" width="112" height="32" rx="16" fill="#FF6B2C"/>
  <rect x="944" y="108" width="132" height="32" rx="16" fill="#0F766E" fill-opacity="0.88"/>
  <rect x="92" y="186" width="464" height="438" rx="28" fill="rgba(19,34,56,0.58)" stroke="rgba(255,255,255,0.12)"/>
  <rect x="592" y="186" width="516" height="200" rx="28" fill="rgba(255,255,255,0.1)"/>
  <rect x="592" y="412" width="516" height="212" rx="28" fill="rgba(255,255,255,0.08)"/>
  <circle cx="202" cy="296" r="58" fill="#FFD166"/>
  <circle cx="250" cy="320" r="46" fill="#F9F5ED"/>
  <circle cx="312" cy="322" r="58" fill="#F9F5ED"/>
  <circle cx="364" cy="330" r="44" fill="#F9F5ED"/>
  <rect x="224" y="452" width="116" height="18" rx="9" fill="#F9F5ED" fill-opacity="0.86"/>
  <rect x="188" y="484" width="188" height="12" rx="6" fill="#F9F5ED" fill-opacity="0.48"/>
  <rect x="168" y="522" width="228" height="64" rx="20" fill="rgba(255,255,255,0.1)"/>
  <rect x="198" y="546" width="54" height="16" rx="8" fill="#FF6B2C"/>
  <rect x="268" y="546" width="96" height="16" rx="8" fill="#F9F5ED" fill-opacity="0.72"/>
  <rect x="636" y="230" width="224" height="20" rx="10" fill="#F9F5ED" fill-opacity="0.82"/>
  <rect x="636" y="266" width="156" height="12" rx="6" fill="#F9F5ED" fill-opacity="0.46"/>
  <rect x="636" y="324" width="416" height="18" rx="9" fill="#0F766E"/>
  <rect x="636" y="458" width="160" height="18" rx="9" fill="#F9F5ED" fill-opacity="0.82"/>
  <rect x="636" y="494" width="240" height="12" rx="6" fill="#F9F5ED" fill-opacity="0.46"/>
  <rect x="636" y="540" width="96" height="48" rx="20" fill="#FF6B2C"/>
  <rect x="754" y="540" width="96" height="48" rx="20" fill="#0F766E"/>
  <rect x="872" y="540" width="96" height="48" rx="20" fill="rgba(255,255,255,0.18)"/>
  <defs>
    <linearGradient id="paint0_linear" x1="95" y1="70" x2="1044" y2="660" gradientUnits="userSpaceOnUse">
      <stop stop-color="#203B59"/>
      <stop offset="1" stop-color="#12263D"/>
    </linearGradient>
  </defs>
</svg>
